<?xml version="1.0" encoding="utf-8"?>
<!-- Generator: Adobe Illustrator 22.1.0, SVG Export Plug-In . SVG Version: 6.00 Build 0)  -->
<svg version="1.1" id="Layer_1" xmlns="http://www.w3.org/2000/svg" xmlns:xlink="http://www.w3.org/1999/xlink" x="0px" y="0px"
	 viewBox="0 0 3280.3 935.4" style="enable-background:new 0 0 3280.3 935.4;" xml:space="preserve">
<style type="text/css">
	.st0{fill:#F59120;}
	.st1{fill:#8AC440;}
	.st2{fill:#FFFFFF;}
	.st3{fill:#36B24A;}
	.st4{fill:#C13F28;}
	.st5{fill:#402312;}
</style>
<g>
	<g>
		<g>
			<path class="st0" d="M2460.7,60.5c-37.5-10.7-76.6,10.9-87.3,48.4c-9,31.2,4.6,63.6,31.1,79.7c8.7-16.1,18.6-30.6,29.7-43.5
				c19.2-22.3,42.1-39.9,68.1-52.2C2493.4,77.7,2478.9,65.7,2460.7,60.5 M2413.8,45.7c0.8,3.4,4.3,5.5,7.7,4.6l0.4-0.1
				c3.4-0.8,5.5-4.3,4.6-7.7l-5.1-20.4c-0.8-3.4-4.3-5.5-7.7-4.6l-0.4,0.1c-3.4,0.8-5.5,4.3-4.6,7.7L2413.8,45.7z M2523.5,49.1
				l-0.3-0.3c-2.4-2.5-6.4-2.6-9-0.2l-15.2,14.6c-2.5,2.4-2.6,6.4-0.2,9l0.3,0.3c2.4,2.5,6.4,2.6,9,0.2l15.2-14.6
				C2525.9,55.6,2525.9,51.6,2523.5,49.1 M2463.2,50.9l0.4,0.1c3.4,1,6.9-1,7.8-4.3l5.8-20.3c1-3.4-1-6.9-4.3-7.8l-0.4-0.1
				c-3.4-1-6.9,1-7.8,4.3l-5.8,20.3C2457.9,46.4,2459.8,49.9,2463.2,50.9 M2361.5,55.3l14.6,15.2c2.4,2.5,6.4,2.6,9,0.2l0.3-0.3
				c2.5-2.4,2.6-6.4,0.2-9l-14.6-15.2c-2.4-2.5-6.4-2.6-9-0.2l-0.3,0.3C2359.2,48.7,2359.1,52.7,2361.5,55.3 M2363.8,106.3l0.1-0.4
				c1-3.4-1-6.9-4.3-7.8l-20.3-5.8c-3.4-1-6.9,1-7.8,4.3l-0.1,0.4c-1,3.4,1,6.9,4.3,7.8l20.3,5.8
				C2359.3,111.7,2362.8,109.7,2363.8,106.3"/>
		</g>
		<g>
			<path class="st1" d="M2387.4,258.2l148.1-71.3l-129.7,95.4c213.9,36.5,266.5-139.6,277.3-191.5
				C2631.4,77.4,2448.5,46.2,2387.4,258.2"/>
		</g>
		<g>
			<path class="st3" d="M2386.9,258.1l-75.2-55.5l62.5,67c-123.5-2.2-134.2-106.2-134.8-136.3
				C2269.5,131.2,2375.1,133.1,2386.9,258.1"/>
		</g>
	</g>
	<g>
		<path class="st2" d="M2408.4,403.7l-3.3,11.7h-59.7l-100.2,289.3c-9.6,0-16,1.1-19.1,3.4c-3.2,2.3-6.8,8.3-10.7,18.1
			c-20.4,49-37.6,84.4-51.6,106.2c-16.2,26.1-34.8,47-55.8,62.5c-21,15.6-40.7,23.4-59.1,23.4c-10.1,0-18.5-2.6-25.2-7.9
			c-6.7-5.3-10.1-11.9-10.1-20c0-2.5,0.6-6.2,1.8-10.9c13.3,3.3,26,4.9,38.3,4.9c43,0,77-20.7,102.2-62
			c25.2-41.3,62.3-137.5,111.4-288.7l34.2-105.5l4.1-12.8h-40.9l4.1-10.5c2.7,0,4.2,0,4.4,0l10.3-0.8c17.4,0,31.7-12.8,42.7-38.4
			c14.5-33.9,30.9-61,49.2-81.4c18.3-20.3,43.9-40.2,76.8-59.5c35.8-20.8,65.5-31.3,89.1-31.3c16.9,0,25.2,3.8,24.7,11.3
			c-0.2,3-2.6,11.2-7,24.5l-17.3,52.4h-11.8c4.7-15.3,7-27,7-35c0-12.8-11.4-19.2-34.2-19.2c-33.4,0-61.3,12.5-83.8,37.5
			c-22.5,25-44.5,68-66.1,129l-3.3,9.8H2408.4z"/>
		<path class="st2" d="M2595.1,650.8l6.6,9.8c-25.8,19.8-61,35.4-105.7,46.7c1.2-25.4,15.8-69.1,43.8-131.1
			c-31.7,38.2-64.3,69.8-97.8,94.9c-33.5,25.1-60.1,37.7-79.7,37.7c-17.2,0-25.8-11.2-25.8-33.5c0-37.9,16.6-78.9,49.7-123
			c33.1-44.1,74.7-80.3,124.8-108.7c56.5-32.4,112.7-48.6,168.6-48.6c7.9,0,11.8,3,11.8,9c0,5-3.7,14.6-11,28.6
			c-16.7-3-32.9-4.5-48.6-4.5c-74.9,0-139.3,29.8-193.3,89.3c-39.8,43.7-59.7,87-59.7,129.9c0,20.1,7.2,30.1,21.7,30.1
			c12.3,0,29.9-10.9,53-32.6c23.1-21.7,43.7-46.9,61.9-75.5c25-39.7,42.1-80.9,51.2-123.5c10.6,6.5,15.8,18.6,15.8,36.2
			c0,24.4-12,52.4-36.1,84c11.8-1,26.4-4.5,43.8-10.5l-2.9,6.4c-23.3,53.5-35,84.7-35,93.8c0,7.3,3.3,10.7,9.9,10.2
			C2568.5,665.3,2579.4,660.3,2595.1,650.8z"/>
		<path class="st2" d="M2885.6,396.9l-13.3,38c-9.3-2-17.6-3-24.7-3c-28.5,0-58.9,22.4-91.3,67c-15.2,21.3-28.3,44.6-39.2,69.7
			c-10.9,25.1-24.5,63.4-40.7,114.9l-4.1,12.8c-16,3.5-31.2,7.8-45.7,12.8l4.1-11.3l32.4-88.1c30.7-84.9,46-134.8,46-149.9
			c0-7.8-3.3-11.7-9.9-11.7c-3.7,0-11.9,3.4-24.7,10.2l-4.8-11.7c34.4-17.1,65.2-36,92.4-56.9c1,4.5,1.5,8.7,1.5,12.4
			c0,19.3-8.5,51.6-25.4,96.8l8.8-10.5c57.2-64.3,97.7-96.4,121.5-96.4C2873.8,392,2879.5,393.7,2885.6,396.9z"/>
		<path class="st2" d="M3185,651.9l5.9,9.8c-26,19.1-57,34.7-92.8,46.7c3.9-54.7,29.1-130.8,75.5-228.3l10.7-23.4
			c2-3.8,2.9-6.9,2.9-9.4c0-6-2.6-9-7.7-9c-10.6,0-31.4,16.1-62.6,48.2c-22.6,23.1-43.9,52.6-63.9,88.5
			c-20,35.9-36.3,73.3-48.8,112.2c-14.5,3.8-31.8,10.8-51.9,21.1l4.1-10.5l22.1-55.4c16.2-40.9,30.9-81.4,44.2-121.3
			c13.3-39.9,19.9-64.2,19.9-72.7c0-7.3-3.3-10.9-9.9-10.9c-8.4,0-22.2,10.1-41.6,30.3c-19.4,20.2-37.4,43.4-54.1,69.5
			c-29,45.7-54.1,96.3-75.5,151.8c-3.2,1-5,1.6-5.5,1.9l-19.5,7.2c-7.9,2.8-16,5.9-24.3,9.4c5.9-12.8,17.4-40.4,34.6-82.9l28.7-70.8
			c21.6-53.7,32.8-87.3,33.5-100.6c0.5-9-3.1-13.6-10.7-13.6c-4.9,0-12.3,2.3-22.1,6.8l-4.4-12.1c21.4-8.5,48.8-23.5,82.5-44.8
			l8.1-5.3c0.7,5.8,1.1,10.7,1.1,14.7c0,21.3-12.8,63.8-38.3,127.3c68.2-89.1,121.1-133.7,158.7-133.7c11,0,16.6,6,16.6,18.1
			c0,18.1-12.4,58.3-37.2,120.5c28.2-37.9,58.9-70.6,91.9-97.9c33-27.4,58.4-41.1,76-41.1c10.3,0,15.5,5.3,15.5,15.8
			c0,7.3-9.3,31.3-28,71.9c-44.9,98.7-67.4,155.9-67.4,171.8c0,6.8,3.2,10.2,9.6,10.2C3165.4,662.1,3173.5,658.7,3185,651.9z"/>
	</g>
	<g>
		<path class="st2" d="M302.8,709.1l-29.6-72.7H136.1l-29.6,72.7H33.8l138.9-326.5h65.8l138.9,326.5H302.8z M204.7,468.3
			l-43.1,105.1h86.1L204.7,468.3z"/>
		<path class="st2" d="M427.4,709.1V384.9h71.3v259.8h161.6v64.4H427.4z"/>
		<path class="st2" d="M714.1,709.1V384.9h71.3v259.8H947v64.4H714.1z"/>
	</g>
	<g>
		<path class="st2" d="M1344.5,680.8c-9,7.1-18.8,13.2-29.4,18.3c-10.7,5.1-22.3,9-35,11.6c-12.7,2.6-26.9,3.9-42.6,3.9
			c-23.8,0-45.8-4.3-66.2-13s-38-20.4-52.8-35.4c-14.8-15-26.4-32.6-34.7-53c-8.3-20.4-12.5-42.1-12.5-65.3V547
			c0-23.2,4.2-44.8,12.5-65.1c8.3-20.2,19.9-38,34.7-53.3s32.6-27.3,53.3-36.1c20.7-8.8,43.5-13.2,68.5-13.2
			c15.1,0,28.9,1.2,41.4,3.7s23.9,5.9,34,10.2s19.6,9.6,28.2,15.7c8.6,6.2,16.7,13,24.1,20.4l-45.4,52.3
			c-12.7-11.4-25.6-20.4-38.7-26.9c-13.1-6.5-27.9-9.7-44.2-9.7c-13.6,0-26.2,2.6-37.8,7.9c-11.6,5.2-21.5,12.5-29.9,21.8
			c-8.3,9.3-14.8,20-19.5,32.2c-4.6,12.2-6.9,25.2-6.9,39.1v0.9c0,13.9,2.3,27,6.9,39.4c4.6,12.4,11,23.2,19.2,32.4
			c8.2,9.3,18.1,16.6,29.6,22c11.6,5.4,24.3,8.1,38.2,8.1c18.5,0,34.2-3.4,47-10.2c12.8-6.8,25.5-16,38.2-27.8l45.4,45.8
			C1362.1,665.7,1353.5,673.7,1344.5,680.8z"/>
		<path class="st2" d="M1668.7,709.1l-29.6-72.7H1502l-29.6,72.7h-72.7l138.9-326.5h65.8l138.9,326.5H1668.7z M1570.5,468.3
			l-43.1,105.1h86.1L1570.5,468.3z"/>
		<path class="st2" d="M2020.7,709.1l-157-206.1v206.1h-70.4V384.9h65.8l151.9,199.6V384.9h70.4v324.2H2020.7z"/>
	</g>
</g>
</svg>
