<?xml version="1.0" encoding="utf-8"?>
<!-- Generator: Adobe Illustrator 22.1.0, SVG Export Plug-In . SVG Version: 6.00 Build 0)  -->
<svg version="1.1" id="Layer_1" xmlns="http://www.w3.org/2000/svg" xmlns:xlink="http://www.w3.org/1999/xlink" x="0px" y="0px"
	 viewBox="0 0 101.1 23.8" style="enable-background:new 0 0 101.1 23.8;" xml:space="preserve">
<style type="text/css">
	.st0{fill:none;stroke:#29AAE2;stroke-width:3;stroke-miterlimit:10;stroke-dasharray:6.9954,4.9967;}
	.st1{fill:none;stroke:#29AAE2;stroke-width:3;stroke-miterlimit:10;stroke-dasharray:7.1453,5.1038;}
	.st2{fill:none;stroke:#29AAE2;stroke-width:3;stroke-miterlimit:10;stroke-dasharray:7,5;}
	.st3{fill:#29AAE2;}
	.st4{fill:#29AAE2;stroke:url(#);stroke-miterlimit:10;}
	.st5{fill:none;stroke:#294623;stroke-linecap:round;stroke-linejoin:round;stroke-miterlimit:10;}
	.st6{fill:#294623;}
	.st7{fill:#F59222;}
	.st8{fill:#8BC441;}
	.st9{fill:#37B24A;}
	.st10{fill:#8CC341;}
	.st11{fill:none;stroke:#8CC341;stroke-linecap:round;stroke-linejoin:round;stroke-miterlimit:10;}
	.st12{fill:none;stroke:#000000;stroke-width:2;stroke-miterlimit:10;}
	.st13{fill:#FFFFFF;}
	.st14{opacity:0.5;}
	.st15{fill:url(#SVGID_1_);}
	.st16{fill:url(#SVGID_2_);}
	.st17{fill:#4D4D4E;}
	.st18{fill:url(#SVGID_3_);}
	.st19{fill:url(#SVGID_4_);}
	.st20{fill:url(#SVGID_5_);}
	.st21{fill:url(#SVGID_6_);}
	.st22{fill:url(#SVGID_7_);}
	.st23{fill:url(#SVGID_8_);}
	.st24{fill:none;stroke:url(#SVGID_9_);stroke-width:2.7153;stroke-miterlimit:10;}
	.st25{opacity:0.5;fill:url(#SVGID_10_);}
	.st26{fill:url(#SVGID_11_);}
	.st27{fill:url(#SVGID_12_);}
	.st28{fill:#F0F8F5;}
	.st29{fill:none;stroke:url(#SVGID_13_);stroke-width:2.7153;stroke-miterlimit:10;}
	.st30{opacity:0.5;fill:url(#SVGID_14_);}
	.st31{fill:url(#SVGID_15_);}
	.st32{fill:url(#SVGID_16_);}
	.st33{fill:none;stroke:url(#SVGID_17_);stroke-width:2.7153;stroke-miterlimit:10;}
	.st34{opacity:0.5;fill:url(#SVGID_18_);}
	.st35{fill:url(#SVGID_19_);}
	.st36{fill:url(#SVGID_20_);}
	.st37{fill:none;stroke:url(#SVGID_21_);stroke-width:2.7153;stroke-miterlimit:10;}
	.st38{opacity:0.5;fill:url(#SVGID_22_);}
	.st39{fill:url(#SVGID_23_);}
	.st40{fill:url(#SVGID_24_);}
	.st41{fill:#F9FCFD;}
</style>
<g>
	<g>
		<path class="st17" d="M2.7,17.4c8.1-5.4,17.9-8.8,27.4-10.7c23.2-4.8,46.1,1.1,65.4,14.5c2,1.4,3.9-1.9,1.9-3.2
			C78,4.4,54.9-1.6,31.4,2.6C20.9,4.5,9.8,8.1,0.9,14.1C-1.1,15.5,0.7,18.7,2.7,17.4L2.7,17.4z"/>
	</g>
	<g>
		<path class="st17" d="M90.7,2.3C93,9,95.2,15.7,97.4,22.5c0.6-0.8,1.2-1.6,1.8-2.4c-7,0-14.1,0-21.1,0c-2.4,0-2.4,3.8,0,3.8
			c7,0,14.1,0,21.1,0c1.2,0,2.2-1.2,1.8-2.4C98.8,14.7,96.6,8,94.4,1.3C93.6-1,90,0,90.7,2.3L90.7,2.3z"/>
	</g>
</g>
</svg>
