<svg xmlns="http://www.w3.org/2000/svg" version="1.1" xmlns:xlink="http://www.w3.org/1999/xlink"  width="500" height="200" x="0" y="0" viewBox="0 0 32 32" style="enable-background:new 0 0 512 512" xml:space="preserve" class=""><g><g fill="#000" fill-rule="evenodd" clip-rule="evenodd"><path d="M28.488 9.513a1 1 0 0 1 1 1v8a1 1 0 0 1-1 1h-8a1 1 0 1 1 0-2h7v-7a1 1 0 0 1 1-1z" fill="#000000" data-original="#000000" class=""></path><path d="M18.147 12.207A11 11 0 0 0 5 23a1 1 0 0 1-2 0 13 13 0 0 1 22.195-9.195l4 4a1 1 0 0 1-1.415 1.415l-4-4a11.001 11.001 0 0 0-5.633-3.013z" fill="#000000" data-original="#000000" class=""></path></g></g></svg>