<?xml version="1.0" encoding="utf-8"?>
<!-- Generator: Adobe Illustrator 22.1.0, SVG Export Plug-In . SVG Version: 6.00 Build 0)  -->
<svg version="1.1" id="Layer_1" xmlns="http://www.w3.org/2000/svg"
	xmlns:xlink="http://www.w3.org/1999/xlink" x="0px" y="0px" width="100" height="100"
 	viewBox="0 0 1280 935.4" style="enable-background:new 0 0 1280 935.4;" xml:space="preserve">
<style type="text/css">
	.st0{fill:#F59120;}
	.st1{fill:#8AC440;}
	.st2{fill:#FFFFFF;}
	.st3{fill:#36B24A;}
	.st4{fill:#C13F28;}
	.st5{fill:#402312;}
</style>
<g>
	<path class="st0" d="M464.1,44.9c-38.9-11.2-79.5,11.3-90.6,50.3c-9.3,32.4,4.8,66,32.3,82.8c9.1-16.7,19.4-31.8,30.8-45.2
		c20-23.2,43.7-41.4,70.7-54.2C498.1,62.7,483,50.3,464.1,44.9 M415.5,29.5c0.9,3.5,4.4,5.7,8,4.8l0.4-0.1c3.5-0.9,5.7-4.4,4.8-8
		L423.4,5c-0.9-3.5-4.4-5.7-8-4.8L415,0.3c-3.5,0.9-5.7,4.4-4.8,8L415.5,29.5z M529.3,33.1l-0.3-0.3c-2.5-2.6-6.7-2.7-9.3-0.2
		L504,47.8c-2.6,2.5-2.7,6.7-0.2,9.3l0.3,0.3c2.5,2.6,6.7,2.7,9.3,0.2l15.7-15.2C531.8,39.9,531.9,35.7,529.3,33.1 M466.7,34.9
		l0.4,0.1c3.5,1,7.1-1,8.1-4.5l6-21c1-3.5-1-7.1-4.5-8.1l-0.4-0.1c-3.5-1-7.1,1-8.1,4.5l-6,21C461.2,30.3,463.2,33.9,466.7,34.9
		 M361.2,39.5l15.2,15.7c2.5,2.6,6.7,2.7,9.3,0.2l0.3-0.3c2.6-2.5,2.7-6.7,0.2-9.3L370.9,30c-2.5-2.6-6.7-2.7-9.3-0.2l-0.3,0.3
		C358.7,32.7,358.6,36.9,361.2,39.5 M363.5,92.5l0.1-0.4c1-3.5-1-7.1-4.5-8.1l-21-6c-3.5-1-7.1,1-8.1,4.5l-0.1,0.4
		c-1,3.5,1,7.1,4.5,8.1l21,6C358.8,98,362.5,96,363.5,92.5"/>
</g>
<g>
	<path class="st1" d="M388,250.2l153.7-74.1L407,275.2c222.1,37.9,276.7-145,287.9-198.8C641.4,62.4,451.4,30.1,388,250.2"/>
</g>
<g>
	<path class="st2" d="M409.8,401.2l-3.4,12.1h-61.9l-104,300.3c-9.9,0-16.6,1.2-19.9,3.5c-3.3,2.3-7,8.6-11.1,18.8
		c-21.2,50.8-39,87.6-53.5,110.3c-16.8,27.1-36.1,48.8-57.9,64.9c-21.8,16.2-42.2,24.2-61.4,24.2c-10.4,0-19.2-2.7-26.2-8.2
		C3.5,921.8,0,914.9,0,906.5c0-2.6,0.6-6.4,1.9-11.3c13.8,3.4,27,5.1,39.8,5.1c44.6,0,80-21.4,106.1-64.3
		c26.1-42.9,64.7-142.8,115.7-299.8L299,426.7l4.2-13.3h-42.4l4.2-11c2.8,0,4.3,0,4.6,0l10.7-0.8c18.1,0,32.9-13.3,44.3-39.9
		c15-35.2,32.1-63.4,51-84.5c19-21.1,45.6-41.7,79.7-61.8c37.2-21.6,68.1-32.5,92.5-32.5c17.6,0,26.1,3.9,25.6,11.7
		c-0.3,3.1-2.7,11.6-7.3,25.4l-18,54.4H536c4.8-15.9,7.3-28,7.3-36.4c0-13.3-11.9-19.9-35.6-19.9c-34.7,0-63.7,13-87,38.9
		c-23.3,25.9-46.2,70.6-68.6,133.9l-3.4,10.2H409.8z"/>
	<path class="st2" d="M603.7,657.8l6.9,10.2c-26.8,20.6-63.3,36.8-109.7,48.5c1.3-26.3,16.4-71.7,45.5-136.1
		c-32.9,39.6-66.7,72.5-101.5,98.5C410,705,382.4,718,362.1,718c-17.8,0-26.8-11.6-26.8-34.8c0-39.4,17.2-81.9,51.6-127.7
		c34.4-45.8,77.6-83.4,129.6-112.8c58.6-33.6,117-50.4,175.1-50.4c8.2,0,12.2,3.1,12.2,9.4c0,5.2-3.8,15.1-11.5,29.7
		c-17.3-3.1-34.2-4.7-50.5-4.7c-77.7,0-144.6,30.9-200.7,92.7c-41.3,45.4-61.9,90.3-61.9,134.9c0,20.9,7.5,31.3,22.6,31.3
		c12.7,0,31.1-11.3,55.1-33.8c24-22.5,45.4-48.7,64.2-78.4c26-41.2,43.7-83.9,53.1-128.3c11,6.8,16.4,19.3,16.4,37.5
		c0,25.3-12.5,54.4-37.5,87.2c12.2-1,27.4-4.7,45.5-11l-3.1,6.7c-24.2,55.5-36.3,88-36.3,97.4c0,7.6,3.4,11.1,10.3,10.6
		C576,672.9,587.4,667.7,603.7,657.8z"/>
	<path class="st2" d="M905.3,394.2l-13.8,39.5c-9.7-2.1-18.2-3.1-25.6-3.1c-29.6,0-61.2,23.2-94.8,69.6
		c-15.8,22.2-29.4,46.3-40.7,72.3c-11.3,26.1-25.4,65.8-42.2,119.3l-4.2,13.3c-16.6,3.7-32.4,8.1-47.4,13.3l4.2-11.7l33.6-91.5
		c31.9-88.1,47.8-140,47.8-155.6c0-8.1-3.4-12.1-10.3-12.1c-3.8,0-12.4,3.5-25.6,10.6l-5-12.1c35.7-17.7,67.7-37.4,96-59.1
		c1,4.7,1.5,9,1.5,12.9c0,20.1-8.8,53.6-26.4,100.5l9.2-11C821,422.5,863,389.1,887.7,389.1C893.1,389.1,899,390.8,905.3,394.2z"/>
	<path class="st2" d="M1216.2,659l6.1,10.2c-27,19.8-59.1,36-96.3,48.5c4.1-56.8,30.2-135.8,78.4-237l11.1-24.2
		c2-3.9,3.1-7.2,3.1-9.8c0-6.3-2.7-9.4-8-9.4c-11,0-32.6,16.7-65,50.1c-23.5,24-45.6,54.6-66.3,91.9
		c-20.8,37.3-37.7,76.1-50.7,116.5c-15,3.9-33,11.2-53.9,21.9l4.2-10.9l22.9-57.5c16.8-42.5,32.1-84.5,45.9-125.9
		c13.8-41.5,20.6-66.6,20.6-75.5c0-7.6-3.4-11.3-10.3-11.3c-8.7,0-23.1,10.5-43.2,31.5c-20.1,21-38.9,45-56.2,72.2
		c-30.1,47.5-56.2,100-78.4,157.6c-3.3,1-5.2,1.7-5.7,2l-20.3,7.4c-8.2,2.9-16.6,6.1-25.2,9.8c6.1-13.3,18.1-42,35.9-86l29.8-73.5
		c22.4-55.8,34-90.6,34.8-104.4c0.5-9.4-3.2-14.1-11.1-14.1c-5.1,0-12.7,2.3-22.9,7l-4.6-12.5c22.2-8.9,50.7-24.4,85.6-46.5l8.4-5.5
		c0.8,6,1.2,11.1,1.2,15.3c0,22.2-13.3,66.2-39.8,132.2c70.9-92.6,125.8-138.8,164.8-138.8c11.5,0,17.2,6.3,17.2,18.8
		c0,18.8-12.9,60.5-38.6,125.1c29.3-39.4,61.1-73.3,95.4-101.7c34.3-28.4,60.6-42.6,78.9-42.6c10.7,0,16.1,5.5,16.1,16.4
		c0,7.6-9.7,32.5-29.1,74.7c-46.6,102.5-70,161.9-70,178.3c0,7,3.3,10.6,9.9,10.6C1195.8,669.5,1204.2,666,1216.2,659z"/>
</g>
<g>
	<path class="st2" d="M692.2,340.5l-9.5-23.2H639l-9.5,23.2h-23.2l44.3-104.1h21l44.3,104.1H692.2z M660.8,263.7l-13.7,33.5h27.5
		L660.8,263.7z"/>
	<path class="st2" d="M731.9,340.5V237.1h22.7V320h51.5v20.5H731.9z"/>
	<path class="st2" d="M823.3,340.5V237.1h22.7V320h51.5v20.5H823.3z"/>
	<path class="st2" d="M1041.6,331.5c-2.9,2.3-6,4.2-9.4,5.8c-3.4,1.6-7.1,2.9-11.1,3.7c-4,0.8-8.6,1.3-13.6,1.3
		c-7.6,0-14.6-1.4-21.1-4.1s-12.1-6.5-16.8-11.3c-4.7-4.8-8.4-10.4-11.1-16.9c-2.7-6.5-4-13.4-4-20.8v-0.3c0-7.4,1.3-14.3,4-20.8
		c2.7-6.4,6.4-12.1,11.1-17c4.7-4.9,10.4-8.7,17-11.5c6.6-2.8,13.9-4.2,21.9-4.2c4.8,0,9.2,0.4,13.2,1.2c4,0.8,7.6,1.9,10.9,3.2
		c3.2,1.4,6.2,3.1,9,5c2.8,2,5.3,4.1,7.7,6.5l-14.5,16.7c-4-3.6-8.2-6.5-12.3-8.6c-4.2-2.1-8.9-3.1-14.1-3.1c-4.3,0-8.3,0.8-12,2.5
		s-6.9,4-9.5,6.9s-4.7,6.4-6.2,10.3c-1.5,3.9-2.2,8-2.2,12.5v0.3c0,4.4,0.7,8.6,2.2,12.6c1.5,3.9,3.5,7.4,6.1,10.3
		c2.6,3,5.8,5.3,9.5,7c3.7,1.7,7.8,2.6,12.2,2.6c5.9,0,10.9-1.1,15-3.2c4.1-2.2,8.1-5.1,12.2-8.9l14.5,14.6
		C1047.2,326.7,1044.5,329.3,1041.6,331.5z"/>
	<path class="st2" d="M1145,340.5l-9.5-23.2h-43.7l-9.5,23.2h-23.2l44.3-104.1h21l44.3,104.1H1145z M1113.7,263.7l-13.7,33.5h27.5
		L1113.7,263.7z"/>
	<path class="st2" d="M1257.3,340.5l-50.1-65.7v65.7h-22.5V237.1h21l48.4,63.7v-63.7h22.5v103.4H1257.3z"/>
</g>
<g>
	<path class="st3" d="M387.5,250l-78.1-57.6l64.8,69.6C246,259.7,234.8,151.7,234.2,120.5C265.6,118.3,375.3,120.3,387.5,250"/>
</g>
</svg>