<?xml version="1.0" encoding="utf-8"?>
<!-- Generator: Adobe Illustrator 22.1.0, SVG Export Plug-In . SVG Version: 6.00 Build 0)  -->
<svg version="1.1" id="Layer_1" xmlns="http://www.w3.org/2000/svg" xmlns:xlink="http://www.w3.org/1999/xlink" x="0px" y="0px"
	 viewBox="0 0 360 212.6" style="enable-background:new 0 0 360 212.6;" xml:space="preserve">
<style type="text/css">
	.st0{fill:#030303;}
	.st1{stroke:#000000;stroke-width:3;stroke-miterlimit:10;}
</style>
<g>
	<path class="st0" d="M155.4,45.1c1.1,0.4,2.2,0.4,3.3,0.6c12.2,2.2,21.6,8.5,28.3,18.9c4.7,7.4,6.6,15.6,6.1,24.3
		c-0.4,7.1-2.6,13.6-6.5,19.5c-0.5,0.7-0.5,1.1,0.2,1.7c1.6,1.5,3.2,3.1,4.7,4.7c0.4,0.5,0.7,0.4,1.1,0c0.9-1,1.9-1.9,2.8-2.8
		c7.8,7.8,15.6,15.5,23.3,23.2c3.7,3.8,4.4,9.3,2.1,14.1c-2.2,4.5-7,7.3-12.1,7c-2.9-0.2-5.6-1.3-7.7-3.4
		c-3.9-3.9-7.8-7.8-11.8-11.7c-3.6-3.6-7.2-7.2-10.8-10.8c-0.6-0.6-0.6-0.9,0-1.4c0.8-0.7,1.5-1.5,2.2-2.2c0.4-0.3,0.4-0.5,0-0.9
		c-1.7-1.6-3.3-3.2-4.9-4.9c-0.5-0.5-0.8-0.5-1.4-0.1c-4,2.6-8.3,4.6-13,5.6c-14,3-26.4-0.2-37.1-9.7c-6.8-6-10.9-13.6-12.7-22.5
		c-0.3-1.4-0.2-2.8-0.8-4.1c0-2.5,0-5.1,0-7.6c0.3-0.1,0.2-0.3,0.2-0.5c0.4-3,0.9-6,2-8.9c5.7-15.3,16.6-24.5,32.7-27.4
		c0.9-0.2,1.8-0.1,2.7-0.5C150.8,45.1,153.1,45.1,155.4,45.1z M151.9,123.9c19.8,0.1,37.5-15.6,37.7-37.3
		c0.2-20-15.8-37.5-37.3-37.8c-19.9-0.2-37.6,15.7-37.8,37.3C114.3,105.8,130,123.5,151.9,123.9z M218.4,142.7
		c0-1.4-0.9-3.5-2.7-5.2c-6.6-6.6-13.2-13.3-19.8-19.9c-0.4-0.4-0.7-0.3-1,0.1c-0.7,0.8-1.6,1.5-2.3,2.3c-0.5,0.5-0.7,0.5-1.2,0
		c-2.3-2.4-4.7-4.7-7-7c-0.4-0.4-0.7-0.4-1.1,0c-1.4,1.7-3,3.3-4.8,4.7c-0.6,0.5-0.5,0.7,0,1.1c2.3,2.3,4.5,4.6,6.9,6.8
		c0.6,0.6,0.6,0.9,0,1.4c-0.8,0.7-1.4,1.4-2.2,2.1c-0.4,0.4-0.5,0.6,0,1.1c6.6,6.6,13.1,13.2,19.7,19.7c2.8,2.8,6.2,3.6,10,2.1
		C216.4,150.7,218.5,147.3,218.4,142.7z"/>
	<path class="st0" d="M139.3,87.4c-6.5-4.7-14.9-0.8-15.8,7.1c-0.1,0.5-0.2,0.8-0.8,0.7c-0.3,0-0.6,0-0.9,0c-2.2,0-2.2,0-1.8-2.2
		c0.8-4.3,3.1-7.5,6.9-9.6c0.7-0.4,1.1-0.5,0.5-1.5c-2-2.8-1.3-6.9,1.3-9.1c2.8-2.4,6.7-2.3,9.4,0.1c2.6,2.3,3.1,6.3,1.1,9.2
		c-0.1,0.2-0.3,0.4-0.5,0.7c1.2,0.6,2.4,1.3,3.5,2.2c0.3,0.3,0.5,0.1,0.8,0c0.8-0.4,1.6-0.8,2.6-1.2c-2.8-2.7-3.9-5.9-3.1-9.7
		c0.5-2.5,1.9-4.4,4-5.9c3.8-2.7,9.4-2.2,12.7,1.2c3.1,3.2,4.6,9.6-0.4,14.4c0.9,0.4,1.8,0.8,2.7,1.3c0.3,0.1,0.5,0.1,0.7-0.1
		c1-0.9,2.2-1.6,3.4-2.1c-2-2.7-2.4-5.4-0.7-8.3c1.9-3.4,6.5-4.5,9.9-2.4c3.3,2,4.3,6.6,2.1,9.8c-0.5,0.8-0.4,1,0.4,1.4
		c4.4,2.4,6.7,6.2,7.2,11.1c0,0.6-0.1,0.8-0.7,0.7c-0.9,0-1.8,0.2-2.6-0.1c-0.8-0.4-0.4-1.5-0.6-2.2c-1.8-6.7-9.2-9.7-14.9-6.1
		c-0.7,0.4-0.6,0.7-0.1,1.2c3.9,3.6,5.9,8.1,6.2,13.4c0,0.7-0.1,1.1-0.9,1c-0.8-0.1-1.8,0.2-2.4-0.1c-0.6-0.4-0.3-1.5-0.4-2.2
		c-1.2-8-8.3-14-16.3-13.7c-8.3,0.3-15,6.5-15.6,14.7c-0.1,1.1-0.4,1.5-1.6,1.5c-2.4-0.1-2.4,0-2-2.5c0.7-4.8,2.8-8.9,6.3-12.1
		C139,87.7,139.1,87.6,139.3,87.4z M152,70.1c-3.5,0-6.4,2.9-6.3,6.4c0.1,3.4,2.9,6.3,6.3,6.3c3.5,0,6.4-2.9,6.4-6.3
		C158.4,72.9,155.5,70.1,152,70.1z M174.3,78.3c0-1.9-1.6-3.5-3.5-3.5c-1.9,0-3.5,1.6-3.5,3.5c0,1.9,1.5,3.5,3.5,3.6
		C172.7,81.8,174.3,80.2,174.3,78.3z M133.3,81.8c1.9,0,3.5-1.5,3.6-3.5c0-1.9-1.5-3.5-3.5-3.6c-1.9,0-3.5,1.6-3.6,3.5
		C129.8,80.1,131.4,81.7,133.3,81.8z"/>
	<path class="st0" d="M204.2,135.4c-0.6,0.5-1.1,0.8-1.4,1.2c-1.4,1.4-1.4,1.4-2.8,0c-1.1-1.1-1.1-1.1,0-2.2c1.5-1.5,1.4-1.4,2.9,0
		C203.2,134.7,203.6,135,204.2,135.4z"/>
	<path class="st0" d="M196.2,127.7c0.8,0.9,1.5,1.6,2.2,2.3c0.3,0.3,0.4,0.6,0,0.8c-0.1,0-0.1,0.1-0.2,0.2c-2.1,2.2-2.1,2.2-4.1-0.2
		c-0.3-0.3-0.3-0.5,0-0.8C194.8,129.3,195.5,128.5,196.2,127.7z"/>
	<path class="st0" d="M206.2,143.2c-0.2-0.3-0.4-0.6-0.7-0.9c-0.5-0.6-1.5-1.1-1.5-1.7c-0.1-0.6,1-1.1,1.5-1.7
		c0.6-0.8,1.1-0.8,1.7,0c0.5,0.6,1.5,1.1,1.5,1.7c-0.1,0.6-1,1.1-1.5,1.7C206.9,142.5,206.7,142.7,206.2,143.2z"/>
</g>
</svg>
