<svg xmlns="http://www.w3.org/2000/svg" version="1.1" xmlns:xlink="http://www.w3.org/1999/xlink"
    width="50" height="50" x="0" y="0" viewBox="0 0 512 512"
    style="enable-background:new 0 0 512 512" xml:space="preserve" class=""><g><path d="m508.069 129.292-26.085-97.633a16.001 16.001 0 0 0-15.458-11.87H45.474a16.001 16.001 0 0 0-15.458 11.87L3.931 129.292C1.212 139.467 0 148.701 0 159.233v34.872c0 29.155 19.603 53.801 46.315 61.495v175.61c0 33.636 27.365 61 61 61h297.369c33.635 0 61-27.364 61-61V255.6C492.397 247.906 512 223.26 512 194.105v-34.872c0-10.532-1.212-19.766-3.931-29.941zM57.76 51.789h396.48l20.924 78.316H36.836zM384 194.105c0 17.645-14.355 32-32 32s-32-14.355-32-32v-32h64zm-256 0v-32h64v32c0 17.645-14.355 32-32 32s-32-14.355-32-32zm96 0v-32h64v32c0 17.645-14.355 32-32 32s-32-14.355-32-32zm-192 0v-32h64v32c0 17.645-14.355 32-32 32s-32-14.355-32-32zm259.369 266.106h-70.737V349.895c0-9.751 7.933-17.685 17.685-17.685h35.368c9.751 0 17.685 7.934 17.685 17.685v110.316zm113.316 0h-81.316V349.895c0-27.396-22.289-49.685-49.685-49.685h-35.368c-27.396 0-49.685 22.288-49.685 49.685v110.316h-81.316c-15.991 0-29-13.01-29-29v-174.73c13.264-3.043 24.973-10.21 33.685-20.086 11.736 13.305 28.905 21.711 48 21.711s36.264-8.406 48-21.712c11.736 13.306 28.906 21.712 48 21.712s36.264-8.406 48-21.712c11.736 13.306 28.906 21.712 48 21.712s36.264-8.406 48-21.711c8.712 9.876 20.42 17.043 33.684 20.086v174.73c0 15.99-13.009 29-28.999 29zM448 226.105c-17.645 0-32-14.355-32-32v-32h64v32c0 17.645-14.355 32-32 32z" fill="#000000" data-original="#000000" class=""></path></g></svg>