<svg xmlns="http://www.w3.org/2000/svg" version="1.1" xmlns:xlink="http://www.w3.org/1999/xlink"
    width="100" height="100" x="0" y="0"
    viewBox="0 0 512.001 512.001" style="enable-background:new 0 0 512 512" xml:space="preserve"><g><path d="M511.999 87.804c0-.056-.007-.112-.009-.169a7.214 7.214 0 0 0-.045-.661c-.01-.08-.025-.16-.037-.24a7.137 7.137 0 0 0-.372-1.445c-.014-.039-.023-.079-.038-.117L491.153 33.09c-2.051-5.248-7.018-8.64-12.653-8.64h-37.044a7.31 7.31 0 1 0 0 14.622h36.336l16.191 41.449H340.909l-9.591-41.449h56.533a7.31 7.31 0 1 0 0-14.622H92.076c-5.636 0-10.602 3.392-12.653 8.642l-20.345 52.08c-.015.039-.023.079-.038.117a7.157 7.157 0 0 0-.372 1.445c-.012.08-.027.16-.037.24a7.586 7.586 0 0 0-.045.661c-.001.056-.008.112-.009.169l-.001.027v107.41a7.31 7.31 0 1 0 14.622 0V95.143H228.17v111.128a11.08 11.08 0 0 0 6.523 10.089 11.069 11.069 0 0 0 11.874-1.808l38.721-34.304 38.721 34.303a11.076 11.076 0 0 0 11.876 1.809 11.081 11.081 0 0 0 6.522-10.089V95.143h154.971v327.923c0 5.246-4.269 9.515-9.515 9.515H353.81c0-.083-.01-.166-.011-.249a26.645 26.645 0 0 0-.088-1.961c12.587 3.337 26.036-3.132 31.08-15.502 2.653-6.507 2.614-13.657-.111-20.133-.257-.61-.54-1.202-.838-1.785-.055-.107-.108-.215-.163-.321a26.3 26.3 0 0 0-.934-1.628c-.064-.103-.13-.203-.195-.305a26.133 26.133 0 0 0-1.094-1.589l-.022-.028a26.149 26.149 0 0 0-1.203-1.472l-.228-.262c-.413-.46-.842-.905-1.286-1.334-.087-.084-.175-.165-.263-.247a25.691 25.691 0 0 0-1.437-1.263l-.051-.039a26.06 26.06 0 0 0-1.512-1.123c-.093-.065-.185-.131-.28-.195a26.62 26.62 0 0 0-1.591-.99c-.045-.026-.086-.056-.132-.082a26.196 26.196 0 0 0 7.117-9.952c2.653-6.507 2.614-13.657-.111-20.134-2.384-5.667-6.575-10.225-11.943-13.053a26.655 26.655 0 0 0-2.371-1.104l-113.787-46.397 52.966-16.394c12.601-3.901 19.698-17.341 15.82-29.958-1.447-4.71-4.316-8.682-8.022-11.585-5.515-4.321-12.886-6.272-20.196-4.737-.035.008-.069.014-.104.023-.405.091-41.009 9.221-83.416 17.49a2298.06 2298.06 0 0 1-9.792 1.887l-1.204.229a1821.756 1821.756 0 0 1-9.966 1.864c-53.257 9.811-68.218 9.987-72.37 9.425a15.623 15.623 0 0 1-.229-.034l-.12-.02a5.673 5.673 0 0 1-.702-.157l-1.198-.488 1.493-3.661a14.46 14.46 0 0 0-.061-11.139 14.724 14.724 0 0 0-1.368-2.53 14.454 14.454 0 0 0-6.553-5.304l-39.268-16.011a14.456 14.456 0 0 0-11.139.061 14.456 14.456 0 0 0-7.833 7.919L1.077 346.076c-3.03 7.431.551 15.941 7.982 18.972l39.269 16.012a14.471 14.471 0 0 0 5.475 1.077c5.743 0 11.197-3.422 13.496-9.059l.361-.885 9.054 3.691.016.007a80.31 80.31 0 0 1 32.262 24.072 94.997 94.997 0 0 0 38.148 28.464l10.186 4.153H82.714c-5.246 0-9.515-4.269-9.515-9.515v-18.499a7.31 7.31 0 1 0-14.622 0v18.499c0 13.309 10.827 24.137 24.137 24.137h110.473l94.181 38.402a26.142 26.142 0 0 0 9.899 1.948c10.379 0 20.237-6.185 24.392-16.374a26.144 26.144 0 0 0 1.792-12.746c4.899.703 9.978.058 14.582-1.93 4.679-2.021 8.557-5.24 11.311-9.301h138.52c13.309 0 24.137-10.827 24.137-24.137V87.832l-.002-.028zM254.267 39.072h62.042l9.591 41.449h-81.224l9.591-41.449zm-24.599 41.449H76.593l16.191-41.449h146.475l-9.591 41.449zm98.119 117.841h-.001l-35.162-31.15a11.037 11.037 0 0 0-7.334-2.778 11.04 11.04 0 0 0-7.336 2.778l-35.161 31.15V95.143h84.994v103.219zM53.785 367.494l-39.143-15.96 47.966-117.635 39.143 15.961-47.966 117.634zm292.085 44.121-8.391-3.422-.012-.005-.009-.004-.003-.001-87.386-35.631a7.311 7.311 0 0 0-9.53 4.01 7.31 7.31 0 0 0 4.01 9.531l87.388 35.632c.365.149.718.314 1.059.495.096.051.185.113.279.166.24.136.481.272.708.423.109.073.209.157.315.233.201.144.406.286.596.442.115.094.219.199.33.297.17.151.344.297.504.457.111.11.21.231.316.345.147.158.298.313.436.479.105.127.197.262.297.393.125.164.255.325.37.495.097.142.18.292.27.437.104.168.214.333.309.506.086.156.158.319.237.478.084.171.175.339.251.514.073.168.132.342.197.513.066.173.138.343.196.519.058.177.102.358.151.537.049.177.104.351.145.53.041.181.067.365.1.547s.071.362.095.546c.024.184.033.37.048.555.015.186.037.371.043.557.006.183-.003.368-.005.552-.002.19.001.38-.011.571-.011.181-.038.362-.058.543-.021.195-.037.39-.069.584-.029.178-.074.355-.111.533-.042.197-.077.394-.13.59-.046.173-.108.345-.163.517-.062.196-.119.392-.192.585a12.02 12.02 0 0 0-.18.402c-.013.031-.02.063-.032.093-1.142 2.637-3.25 4.732-6.003 5.921-3.03 1.307-6.499 1.353-9.519.121l-15.483-6.313c-.072-.029-.145-.049-.217-.076-.073-.033-.142-.071-.216-.101l-71.076-28.981a7.31 7.31 0 0 0-9.53 4.01 7.311 7.311 0 0 0 4.009 9.531l71.076 28.981c.076.031.153.053.23.081.069.03.133.067.204.095 5.965 2.433 8.84 9.265 6.408 15.23-2.433 5.967-9.262 8.843-15.23 6.408l-95.495-38.938-.012-.006-44.72-18.235a80.284 80.284 0 0 1-21.635-13.146 80.076 80.076 0 0 1-10.627-10.926 95.001 95.001 0 0 0-38.148-28.465l-.003-.001-9.066-3.696 18.057-44.285 17.064-41.849 1.259.513c1.185.483 2.875 1.169 7.423 1.341 5.682.257 15.082-.336 31.922-2.715 11.455-1.618 25.506-3.958 41.909-6.976l1.213-.223 2.32-.43 1.826-.341 2.105-.395 2.269-.429 1.835-.348 2.822-.54 1.463-.28c1.452-.28 2.923-.564 4.421-.855 42.261-8.22 83.051-17.369 84.884-17.781.183-.038.366-.06.549-.087 4.696-.695 9.297 2.021 10.644 6.403a9.317 9.317 0 0 1 .23 4.589c-.655 3.253-3.019 6.06-6.398 7.105l-72.482 22.434a7.311 7.311 0 0 0-.598 13.755l132.704 54.111a11.603 11.603 0 0 1 6.358 6.288 11.605 11.605 0 0 1 .049 8.942 11.607 11.607 0 0 1-6.288 6.358c-1.438.604-2.951.91-4.466.919l-.066-.003c-.356 0-.711-.014-1.066-.047-.105-.01-.209-.032-.314-.044-.271-.033-.542-.064-.811-.116-.17-.033-.338-.083-.507-.123-.202-.048-.405-.089-.605-.148-.207-.061-.41-.142-.614-.215-.162-.058-.327-.106-.487-.171l-87.396-35.636a7.31 7.31 0 0 0-9.53 4.01 7.31 7.31 0 0 0 4.01 9.531l105.955 43.203a11.593 11.593 0 0 1 6.358 6.288 11.591 11.591 0 0 1 .049 8.942c-.152.373-.321.734-.506 1.082-.431.81-.956 1.542-1.542 2.209-.364.414-.753.8-1.167 1.154-.066.056-.126.12-.193.174a11.716 11.716 0 0 1-9.72 2.416 11.694 11.694 0 0 1-2.102-.628l-10.155-4.14z" fill="#000000" data-original="#000000"></path></g></svg>