<svg xmlns="http://www.w3.org/2000/svg" version="1.1" xmlns:xlink="http://www.w3.org/1999/xlink"
     width="50" height="50" x="0" y="0" viewBox="0 0 64 64"
    style="enable-background:new 0 0 512 512" xml:space="preserve" class=""><g><path d="M15 14v-1h-2v1a1 1 0 0 1-2 0v-1H9v1c0 1.654 1.346 3 3 3s3-1.346 3-3z" fill="#000000" data-original="#000000" class=""></path><path d="M30 19a2.996 2.996 0 0 0 2.816-2H49v-3.586L53.586 18 49 22.586V19H33v2h14v6.414L56.414 18 47 8.586V15H33v-.5l1.199-.9A7.033 7.033 0 0 0 37 8a7.033 7.033 0 0 0-1.4-4.199C34.285 2.047 32.191 1 30 1s-4.285 1.047-5.6 2.8a6.954 6.954 0 0 0-.511.811A11.408 11.408 0 0 0 15.578 1H11C5.486 1 1 5.486 1 11v1h3.985a2.977 2.977 0 0 1-.488 1.453l-1.07 1.605c-.28.419-.427.905-.427 1.407a2.54 2.54 0 0 0 2.027 2.484A6.669 6.669 0 0 0 11 24.967v1.251c-5.839 1.548-10 6.875-10 12.98V43h4.579l.293.293a.984.984 0 0 1 .217 1.09.983.983 0 0 1-.924.617H3v7.833h2.096c.62 0 .863.473.924.617a.98.98 0 0 1-.218 1.09l-1.529 1.531 5.539 5.54 1.481-1.483c.438-.439.945-.277 1.09-.217s.617.304.617.924V63h7.833v-2.096c0-.62.473-.863.617-.924s.652-.221 1.09.218l1.531 1.529 5.54-5.539-1.483-1.481a.984.984 0 0 1-.217-1.09.983.983 0 0 1 .924-.617H31v-7.833h-2.096c-.619 0-.863-.473-.924-.617a.982.982 0 0 1 .217-1.091l.459-.459H31v-3.802c0-6.106-4.161-11.432-10-12.981v-3.682l.914-.609a11.392 11.392 0 0 0 4.901-7.564L27 14.5V16c0 1.654 1.346 3 3 3zm0-2a1 1 0 0 1-1-1v-1h2v1a1 1 0 0 1-1 1zm-1-9a1 1 0 1 1 2 0 1 1 0 0 1-2 0zm1-5c1.565 0 3.061.748 4 2.001.645.858 1 1.924 1 2.999a5.023 5.023 0 0 1-2.001 4l-1.333 1H31v-2.184A2.996 2.996 0 0 0 33 8c0-1.654-1.346-3-3-3s-3 1.346-3 3c0 1.302.839 2.402 2 2.816V13h-.667L27 12a5.025 5.025 0 0 1-2-4c0-1.075.355-2.141 1-3a5.025 5.025 0 0 1 4-2zM7.762 20.881a4.586 4.586 0 0 0 3.133-2.434l-1.789-.895c-.4.801-1.17 1.305-2.043 1.406-.028-.203-.063-.404-.063-.615V17H5.535a.536.536 0 0 1-.445-.832l1.07-1.605A4.98 4.98 0 0 0 7 11.789c0-1.417.762-2.685 1.974-3.359.597.353 1.284.57 2.026.57h2.877a4.274 4.274 0 0 1 4.153 3.242l.19.758H20a1 1 0 0 1 0 2h-1v11.5l-3 2.25-3-2.25v-1.636a6.607 6.607 0 0 0 3.364-1.814l.343-.343-1.414-1.414-.343.343a4.65 4.65 0 0 1-7.188-.755zm12.795 7.285-1.067 3.201L17.667 30l2.555-1.916c.112.026.225.052.335.082zm-8.779-.082L14.333 30l-1.823 1.367-1.067-3.201c.111-.03.223-.056.335-.082zM16 31.25l1.402 1.052L16.323 35h-.646l-1.079-2.698zM5.2 41H3v-1.802c0-4.489 2.643-8.483 6.566-10.34l1.924 5.774 1.45-1.088.583 1.456h-.356v2.096c0 .62-.473.863-.617.924a.98.98 0 0 1-1.09-.218l-1.531-1.529-.929.928V35H7v4.201zm23.704 6.167H29V51h-.165c-1.236 0-2.298.71-2.771 1.852a2.957 2.957 0 0 0 .65 3.271l.067.066-2.71 2.711-.117-.116a2.957 2.957 0 0 0-3.27-.65 2.955 2.955 0 0 0-1.852 2.771V61H15v-.165c0-1.236-.71-2.298-1.852-2.771a2.96 2.96 0 0 0-3.271.65l-.066.067-2.711-2.71.116-.117a2.955 2.955 0 0 0 .65-3.27 2.955 2.955 0 0 0-2.771-1.852H5V47h.165c1.236 0 2.298-.71 2.771-1.852a2.957 2.957 0 0 0-.65-3.271l-.067-.066 2.71-2.711.117.116a2.958 2.958 0 0 0 3.27.65 2.955 2.955 0 0 0 1.852-2.771V37H19v.165c0 1.236.71 2.298 1.852 2.771a2.958 2.958 0 0 0 3.271-.65l.066-.067 2.711 2.71-.116.116a2.957 2.957 0 0 0-.65 3.271 2.95 2.95 0 0 0 2.77 1.851zM29 39.198V41h-.201L25 37.2V35h-2v2.579l-.293.293a.984.984 0 0 1-1.09.217.983.983 0 0 1-.617-.924V35h-2.523l.582-1.455 1.451 1.088 1.924-5.774C26.357 30.715 29 34.709 29 39.198zm-8-19.085v-3.284A3.006 3.006 0 0 0 23 14c0-1.654-1.346-3-3-3h-.271a6.272 6.272 0 0 0-5.853-4H11c-1.103 0-2-.897-2-2H7c0 .723.207 1.391.544 1.977A5.787 5.787 0 0 0 5.28 10H3.063C3.556 6.06 6.928 3 11 3h4.578a9.413 9.413 0 0 1 7.535 3.791A7 7 0 0 0 23 8c0 1.818.728 3.561 1.974 4.855A9.385 9.385 0 0 1 21 20.113z" fill="#000000" data-original="#000000" class=""></path><path d="M17 41c-4.411 0-8 3.589-8 8s3.589 8 8 8 8-3.589 8-8-3.589-8-8-8zm0 14c-3.309 0-6-2.691-6-6s2.691-6 6-6 6 2.691 6 6-2.691 6-6 6z" fill="#000000" data-original="#000000" class=""></path><path d="M17 45c-2.206 0-4 1.794-4 4s1.794 4 4 4 4-1.794 4-4-1.794-4-4-4zm0 6c-1.103 0-2-.897-2-2s.897-2 2-2 2 .897 2 2-.897 2-2 2zM47 45H33v2h16v-3.586L53.586 48 49 52.586V49H33v2h14v6.414L56.414 48 47 38.586z" fill="#000000" data-original="#000000" class=""></path><path d="M63.414 32 54 22.586V29H33v2h23v-3.586L60.586 32 56 36.586V33H33v2h21v6.414z" fill="#000000" data-original="#000000" class=""></path></g></svg>