<?xml version="1.0" encoding="utf-8"?>
<!-- Generator: Adobe Illustrator 22.1.0, SVG Export Plug-In . SVG Version: 6.00 Build 0)  -->
<svg version="1.1" id="Layer_1" xmlns="http://www.w3.org/2000/svg" xmlns:xlink="http://www.w3.org/1999/xlink" x="0px" y="0px"
	 viewBox="0 0 360 212.6" style="enable-background:new 0 0 360 212.6;" xml:space="preserve">
<style type="text/css">
	.st0{fill:#030303;}
	.st1{stroke:#000000;stroke-width:3;stroke-miterlimit:10;}
</style>
<g>
	<g>
		<g>
			<g>
				<path d="M208.8,39.6c-1,0-1.5-0.6-1.6-1.5c-0.1-1.3,1-0.9,1.7-1c1.2-0.2,1.9-0.8,1.8-2c-0.1-1.1-0.9-1.6-1.9-1.6
					c-5.5,0-11,0-16.6,0c-1.2,0-2,0.6-2,1.9c0.1,1.3,1,1.7,2.2,1.7c2.1,0,4.1,0,6.2,0c1.7,0,3.4,0.2,4.7,2.5c-3.5,0-6.6,0-9.6,0
					c-1.4,0-3.4-0.4-3.4,1.8c0,2.2,2,1.8,3.4,1.8c3.1,0,6.2,0,9.9,0c-1.6,2.2-3.1,2.6-4.8,2.6c-1.8,0-3.7,0-5.5,0
					c-1.1,0-2.4-0.2-2.9,1.2c-0.5,1.3,0.5,2.1,1.4,2.9c3.5,3,6.9,6.1,10.4,9.1c1,0.9,2.2,2.2,3.5,0.7c1.5-1.7-0.2-2.6-1.2-3.6
					c-2.2-2.1-4.8-3.7-6.9-6.5c4.6,0.2,7.9-1.2,9.6-5.2c0.3-0.7,0.8-1.1,1.6-1.1c1.2,0,1.5-1.1,1.6-1.9
					C210.6,40.4,209.9,39.6,208.8,39.6z"/>
				<path d="M204.4,60.8c-0.9,0-1.7-0.7-2.3-1.2c-0.1-0.1-0.2-0.2-0.3-0.3c-2.7-2.3-5.5-4.7-8.1-7.1l-2.4-2.1
					c-0.9-0.8-1.9-1.7-1.4-3.3c0.5-1.5,1.9-1.5,2.9-1.5c0.1,0,0.3,0,0.4,0c2,0,3.8,0,5.5,0c0,0,0.1,0,0.1,0c1.4,0,2.6-0.3,3.8-1.7
					c-0.9,0-1.7,0-2.5,0c-2.3,0-4.4,0-6.5,0c-0.2,0-0.4,0-0.6,0c-0.9,0-2,0-2.7-0.6c-0.4-0.4-0.6-0.9-0.6-1.7c0-0.7,0.2-1.3,0.6-1.6
					c0.7-0.7,1.7-0.6,2.7-0.6c0.2,0,0.4,0,0.6,0c2.1,0,4.3,0,6.6,0c0.7,0,1.5,0,2.2,0c-1.1-1.5-2.4-1.6-3.9-1.6c-2.1,0-4.2,0-6.2,0
					c-1.6,0-2.5-0.8-2.6-2.1c0-0.7,0.1-1.2,0.5-1.7c0.4-0.5,1.1-0.7,1.9-0.7c4.8,0,9.9,0,16.6,0c1.4,0,2.2,0.7,2.4,1.9
					c0.1,1.4-0.6,2.3-2.2,2.5c-0.2,0-0.4,0-0.6,0c-0.3,0-0.6,0-0.7,0.1c-0.1,0.1-0.1,0.2-0.1,0.4c0.1,0.7,0.5,1.1,1.2,1.1l0,0
					c0.7,0,1.3,0.3,1.7,0.8c0.3,0.4,0.5,0.9,0.4,1.5c-0.1,1.4-0.9,2.2-2,2.3c-0.6,0-1,0.3-1.2,0.8c-1.6,3.7-4.5,5.5-9.1,5.5
					c1.2,1.5,2.6,2.6,3.9,3.7c0.8,0.7,1.6,1.4,2.4,2.1c0.2,0.1,0.3,0.3,0.5,0.4c0.7,0.6,1.4,1.2,1.4,2.1c0,0.6-0.2,1.1-0.7,1.7
					C205.5,60.6,204.9,60.8,204.4,60.8z M192.7,46.3c-1,0-1.6,0.1-1.9,0.9c-0.3,0.9,0.2,1.5,1.1,2.3l2.4,2.1c2.6,2.3,5.4,4.7,8.1,7
					c0.1,0.1,0.2,0.2,0.3,0.3c1.2,1,1.8,1.4,2.6,0.5c0.4-0.4,0.5-0.7,0.5-1c0-0.5-0.6-1-1.2-1.5c-0.2-0.2-0.4-0.3-0.5-0.5
					c-0.7-0.7-1.5-1.4-2.3-2c-1.6-1.3-3.2-2.7-4.6-4.5l-0.5-0.7l0.9,0c4.8,0.2,7.7-1.3,9.2-5c0.4-0.9,1-1.3,2-1.4
					c0.3,0,1.1,0,1.2-1.5c0-0.3,0-0.6-0.2-0.8c-0.2-0.3-0.6-0.4-1.1-0.5c-1.1-0.1-1.9-0.8-2-1.9c0-0.5,0.1-0.9,0.3-1.1
					c0.4-0.4,0.9-0.4,1.4-0.4c0.2,0,0.3,0,0.4,0c1.1-0.1,1.5-0.6,1.4-1.6c0-0.3-0.1-1.2-1.5-1.2c-6.7,0-11.8,0-16.6,0
					c-0.5,0-1,0.1-1.2,0.4c-0.2,0.2-0.3,0.6-0.3,1c0,0.6,0.2,1.3,1.7,1.3c2.1,0,4.1,0,6.2,0c1.9,0,3.7,0.2,5.1,2.7l0.3,0.6h-0.7
					c-1,0-2,0-3,0c-2.3,0-4.5,0-6.6,0c-0.2,0-0.4,0-0.6,0c-0.8,0-1.6,0-2.1,0.4c-0.2,0.2-0.3,0.5-0.3,1c0,0.5,0.1,0.8,0.3,1
					c0.4,0.4,1.3,0.4,2.1,0.4c0.2,0,0.4,0,0.6,0c2.1,0,4.2,0,6.5,0c1.1,0,2.2,0,3.4,0h0.8l-0.5,0.7c-1.7,2.3-3.2,2.8-5.1,2.8
					c-1.7,0-3.5,0-5.5,0c-0.1,0-0.3,0-0.4,0C192.8,46.3,192.8,46.3,192.7,46.3z"/>
			</g>
		</g>
		<g>
			<path d="M210.9,101.4c5.1,2,10,1.7,14.5-1.5c6.9-5,10-12.4,12.2-20.3c0.4-1.4-0.1-2.2-1.7-2.1c-1.8,0.1-3.7,0.3-5.5,0.1
				c-6.5-0.9-12.3,0.9-17.6,4.4c-4.1,2.7-6.7,6.5-6.4,11.9c0.2,2.7-0.6,5.1-4,5.2l0.1-28c0,0.1,0-0.1,0-0.1c1-0.2,2-0.5,3-0.7
				c11-2.1,19.5-11.5,20.4-22.4c1-11.9-5.5-22.4-16.4-26.5c-10.6-4-22.6-0.4-29.4,8.6c-11.2,15-2.9,36.7,15.5,40.3
				c1.3,0.3,3.2-0.2,3.2,2.2c0,5.7,0,11.5,0,17.5c-2.2-0.7-3.6-1.4-3.5-3.8c0.3-7.9-4.1-12.6-10.9-15.5c-6-2.5-12.3-2.5-18.6-2
				c-2.2,0.2-1.8,1.4-1.4,2.6c1.8,6,4.2,11.7,8.5,16.4c5.2,5.7,10.8,7,18.1,4.3c1.4-0.5,2.4-0.5,3.8,0.3c3.1,1.6,4.6,3.8,4.1,7.4
				c-0.3,2.4-0.2,4.8,0,7.2c0.1,2.1-0.5,3.1-2.7,3.5c-4.2,0.8-7.8,2.9-10.5,6.2c-1.3,1.6-2.6,2.2-4.7,2c-5.3-0.4-10,1.2-14.1,4.6
				c-1.1,0.9-2.8,1.9-1.5,3.6c1.3,1.8,2.6,0.4,3.8-0.6c3.7-3.1,8.1-4.6,12.8-3.8c2.6,0.4,4.1-0.1,5.7-2.3c6.2-8.5,18.9-8.8,25.4-0.6
				c2,2.5,4,3,6.7,2.8c4.7-0.3,8.9,1,12.5,4.1c1.1,0.9,2.2,2.2,3.5,0.7c1.4-1.6-0.1-2.7-1.3-3.7c-4.2-3.5-9-5.1-14.4-4.7
				c-1.4,0.1-2.6,0.3-3.7-1.1c-3-3.9-7-6.3-11.8-7.2c-1.4-0.3-2.1-0.9-2.2-2.5C202.3,103.2,206.7,99.8,210.9,101.4z M233,80.8
				c-3,12.6-12.1,21.1-20.2,17c2-2.2,4.6-3.3,6.8-4.9c0.8-0.6,1.7-1.1,2.6-1.7c1.2-0.9,2.9-1.6,1.6-3.5c-1.1-1.6-2.4-0.5-3.6,0.3
				c-3.2,2.1-6.5,4.3-10.1,6.6C209.2,86.4,219,80.1,233,80.8z M181.5,78.9c-1.2-0.8-2.6-2-3.8-0.2c-1,1.7,0.5,2.4,1.6,3.2
				c3,2.1,6.1,4.1,9.7,6.4c-3.8,1.8-7,1.4-10-0.5c-5.4-3.5-8-9-10.1-14.8c-0.4-0.9-0.2-1.6,1-1.5c6.5,0.4,12.9,1,18.1,5.6
				c2.2,2,3.5,4.5,3.4,8.3C187.8,83.1,184.7,81,181.5,78.9z M178.8,45.1c0.1-12,9.9-21.7,21.8-21.7c12.1,0,21.8,10,21.7,22.2
				c-0.1,11.8-10,21.4-21.8,21.3C188.4,66.8,178.7,57.1,178.8,45.1z M200.6,67.3c0,0-0.1,0-0.1,0c-12.3-0.1-22.2-10-22.1-22.2v0
				c0.1-12.2,10-22.1,22.2-22.1c0,0,0.1,0,0.1,0c5.9,0,11.5,2.4,15.7,6.6c4.2,4.3,6.5,10,6.4,16C222.6,57.6,212.7,67.3,200.6,67.3z
				 M179.2,45.1c-0.1,11.7,9.5,21.3,21.3,21.3c0,0,0.1,0,0.1,0c11.6,0,21.2-9.3,21.3-20.9c0.1-5.8-2.1-11.3-6.2-15.4
				c-4-4.1-9.4-6.3-15.1-6.4c0,0-0.1,0-0.1,0C188.8,23.8,179.3,33.3,179.2,45.1L179.2,45.1z"/>
		</g>
		<g>
			<g>
				<path d="M210.5,41.3c-0.1,0.8-0.4,1.8-1.6,1.9c-0.8,0-1.3,0.4-1.6,1.1c-1.7,4.1-5,5.4-9.6,5.2c2.1,2.8,4.7,4.4,6.9,6.5
					c1,1,2.7,1.9,1.2,3.6c-1.4,1.5-2.5,0.2-3.5-0.7c-3.5-3-6.9-6-10.4-9.1c-0.9-0.8-1.9-1.5-1.4-2.9c0.5-1.4,1.8-1.2,2.9-1.2
					c1.8,0,3.7,0,5.5,0c1.7,0,3.2-0.3,4.8-2.6c-3.7,0-6.8,0-9.9,0c-1.4,0-3.4,0.4-3.4-1.8c0-2.2,2-1.8,3.4-1.8c3,0,6.1,0,9.6,0
					c-1.3-2.4-2.9-2.5-4.7-2.5c-2.1,0-4.1,0-6.2,0c-1.2,0-2.1-0.4-2.2-1.7c-0.1-1.3,0.7-1.9,2-1.9c5.5,0,11,0,16.6,0
					c1,0,1.8,0.5,1.9,1.6c0.1,1.3-0.6,1.9-1.8,2c-0.7,0.1-1.8-0.3-1.7,1c0.1,0.9,0.6,1.5,1.6,1.5C209.9,39.6,210.6,40.4,210.5,41.3z
					"/>
				<path d="M204.4,60.8c-0.9,0-1.7-0.7-2.3-1.2c-0.1-0.1-0.2-0.2-0.3-0.3c-2.7-2.3-5.5-4.7-8.1-7.1l-2.4-2.1
					c-0.9-0.8-1.9-1.7-1.4-3.3c0.5-1.5,1.9-1.5,2.9-1.5c0.1,0,0.3,0,0.4,0c2,0,3.8,0,5.5,0c0,0,0.1,0,0.1,0c1.4,0,2.6-0.3,3.8-1.7
					c-0.9,0-1.7,0-2.5,0c-2.3,0-4.4,0-6.5,0c-0.2,0-0.4,0-0.6,0c-0.9,0-2,0-2.7-0.6c-0.4-0.4-0.6-0.9-0.6-1.7c0-0.7,0.2-1.3,0.6-1.6
					c0.7-0.7,1.7-0.6,2.7-0.6c0.2,0,0.4,0,0.6,0c2.1,0,4.3,0,6.6,0c0.7,0,1.5,0,2.2,0c-1.1-1.5-2.4-1.6-3.9-1.6c-2.1,0-4.2,0-6.2,0
					c-1.6,0-2.5-0.8-2.6-2.1c0-0.7,0.1-1.2,0.5-1.7c0.4-0.5,1.1-0.7,1.9-0.7c4.8,0,9.9,0,16.6,0c1.4,0,2.2,0.7,2.4,1.9
					c0.1,1.4-0.6,2.3-2.2,2.5c-0.2,0-0.4,0-0.6,0c-0.3,0-0.6,0-0.7,0.1c-0.1,0.1-0.1,0.2-0.1,0.4c0.1,0.7,0.5,1.1,1.2,1.1
					c0.7,0,1.3,0.3,1.7,0.8c0.3,0.4,0.5,0.9,0.4,1.5c-0.1,1.4-0.9,2.2-2,2.3c-0.6,0-1,0.3-1.2,0.8c-1.6,3.7-4.5,5.5-9.1,5.5
					c1.2,1.5,2.6,2.6,3.9,3.7c0.8,0.7,1.6,1.4,2.4,2.1c0.2,0.1,0.3,0.3,0.5,0.4c0.7,0.6,1.4,1.2,1.4,2.1c0,0.6-0.2,1.1-0.7,1.7
					C205.5,60.6,204.9,60.8,204.4,60.8z M192.7,46.3c-1,0-1.6,0.1-1.9,0.9c-0.3,0.9,0.2,1.5,1.1,2.3l2.4,2.1c2.6,2.3,5.4,4.7,8.1,7
					c0.1,0.1,0.2,0.2,0.3,0.3c1.2,1,1.8,1.4,2.6,0.5c0.4-0.4,0.5-0.7,0.5-1c0-0.5-0.6-1-1.2-1.5c-0.2-0.2-0.4-0.3-0.5-0.5
					c-0.7-0.7-1.5-1.4-2.3-2c-1.6-1.3-3.2-2.7-4.6-4.5l-0.5-0.7l0.9,0c4.8,0.2,7.7-1.3,9.2-5c0.4-0.9,1-1.3,2-1.4
					c0.3,0,1.1,0,1.2-1.5l0,0c0-0.3,0-0.6-0.2-0.8c-0.2-0.3-0.6-0.4-1.1-0.5c-1.1,0-1.9-0.8-2-1.9c0-0.5,0.1-0.9,0.3-1.1
					c0.4-0.4,0.9-0.4,1.4-0.4c0.2,0,0.3,0,0.4,0c1.1-0.1,1.5-0.6,1.4-1.6c0-0.3-0.1-1.2-1.5-1.2c-6.7,0-11.8,0-16.6,0
					c-0.5,0-1,0.1-1.2,0.4c-0.2,0.2-0.3,0.6-0.3,1c0,0.6,0.2,1.3,1.7,1.3c2.1,0,4.1,0,6.2,0c1.9,0,3.7,0.2,5.1,2.7l0.3,0.6h-0.7
					c-1,0-2,0-3,0c-2.3,0-4.5,0-6.6,0c-0.2,0-0.4,0-0.6,0c-0.8,0-1.6,0-2.1,0.4c-0.2,0.2-0.3,0.5-0.3,1c0,0.5,0.1,0.8,0.3,1
					c0.4,0.4,1.3,0.4,2.1,0.4c0.2,0,0.4,0,0.6,0c2.1,0,4.2,0,6.5,0c1.1,0,2.2,0,3.4,0h0.8l-0.5,0.7c-1.7,2.3-3.2,2.8-5.1,2.8
					c-1.7,0-3.5,0-5.5,0c-0.1,0-0.3,0-0.4,0C192.8,46.3,192.8,46.3,192.7,46.3z"/>
			</g>
		</g>
		<g>
			<g>
				<path d="M210.5,41.3c-0.1,0.8-0.4,1.8-1.6,1.9c-0.8,0-1.3,0.4-1.6,1.1c-1.7,4.1-5,5.4-9.6,5.2c2.1,2.8,4.7,4.4,6.9,6.5
					c1,1,2.7,1.9,1.2,3.6c-1.4,1.5-2.5,0.2-3.5-0.7c-3.5-3-6.9-6-10.4-9.1c-0.9-0.8-1.9-1.5-1.4-2.9c0.5-1.4,1.8-1.2,2.9-1.2
					c1.8,0,3.7,0,5.5,0c1.7,0,3.2-0.3,4.8-2.6c-3.7,0-6.8,0-9.9,0c-1.4,0-3.4,0.4-3.4-1.8c0-2.2,2-1.8,3.4-1.8c3,0,6.1,0,9.6,0
					c-1.3-2.4-2.9-2.5-4.7-2.5c-2.1,0-4.1,0-6.2,0c-1.2,0-2.1-0.4-2.2-1.7c-0.1-1.3,0.7-1.9,2-1.9c5.5,0,11,0,16.6,0
					c1,0,1.8,0.5,1.9,1.6c0.1,1.3-0.6,1.9-1.8,2c-0.7,0.1-1.8-0.3-1.7,1c0.1,0.9,0.6,1.5,1.6,1.5C209.9,39.6,210.6,40.4,210.5,41.3z
					"/>
				<path d="M204.4,60.8c-0.9,0-1.7-0.7-2.3-1.2c-0.1-0.1-0.2-0.2-0.3-0.3c-2.7-2.3-5.5-4.7-8.1-7.1l-2.4-2.1
					c-0.9-0.8-1.9-1.7-1.4-3.3c0.5-1.5,1.9-1.5,2.9-1.5c0.1,0,0.3,0,0.4,0c2,0,3.8,0,5.5,0c0,0,0.1,0,0.1,0c1.4,0,2.6-0.3,3.8-1.7
					c-0.9,0-1.7,0-2.5,0c-2.3,0-4.4,0-6.5,0c-0.2,0-0.4,0-0.6,0c-0.9,0-2,0-2.7-0.6c-0.4-0.4-0.6-0.9-0.6-1.7c0-0.7,0.2-1.3,0.6-1.6
					c0.7-0.7,1.7-0.6,2.7-0.6c0.2,0,0.4,0,0.6,0c2.1,0,4.3,0,6.6,0c0.7,0,1.5,0,2.2,0c-1.1-1.5-2.4-1.6-3.9-1.6c-2.1,0-4.2,0-6.2,0
					c-1.6,0-2.5-0.8-2.6-2.1c0-0.7,0.1-1.2,0.5-1.7c0.4-0.5,1.1-0.7,1.9-0.7c4.8,0,9.9,0,16.6,0c1.4,0,2.2,0.7,2.4,1.9
					c0.1,1.4-0.6,2.3-2.2,2.5c-0.2,0-0.4,0-0.6,0c-0.3,0-0.6,0-0.7,0.1c-0.1,0.1-0.1,0.2-0.1,0.4c0.1,0.7,0.5,1.1,1.2,1.1
					c0.7,0,1.3,0.3,1.7,0.8c0.3,0.4,0.5,0.9,0.4,1.5c-0.1,1.4-0.9,2.2-2,2.3c-0.6,0-1,0.3-1.2,0.8c-1.6,3.7-4.5,5.5-9.1,5.5
					c1.2,1.5,2.6,2.6,3.9,3.7c0.8,0.7,1.6,1.4,2.4,2.1c0.2,0.1,0.3,0.3,0.5,0.4c0.7,0.6,1.4,1.2,1.4,2.1c0,0.6-0.2,1.1-0.7,1.7
					C205.5,60.6,204.9,60.8,204.4,60.8z M192.7,46.3c-1,0-1.6,0.1-1.9,0.9c-0.3,0.9,0.2,1.5,1.1,2.3l2.4,2.1c2.6,2.3,5.4,4.7,8.1,7
					c0.1,0.1,0.2,0.2,0.3,0.3c1.2,1,1.8,1.4,2.6,0.5c0.4-0.4,0.5-0.7,0.5-1c0-0.5-0.6-1-1.2-1.5c-0.2-0.2-0.4-0.3-0.5-0.5
					c-0.7-0.7-1.5-1.4-2.3-2c-1.6-1.3-3.2-2.7-4.6-4.5l-0.5-0.7l0.9,0c4.8,0.2,7.7-1.3,9.2-5c0.4-0.9,1-1.3,2-1.4
					c0.3,0,1.1,0,1.2-1.5l0,0c0-0.3,0-0.6-0.2-0.8c-0.2-0.3-0.6-0.4-1.1-0.5c-1.1,0-1.9-0.8-2-1.9c0-0.5,0.1-0.9,0.3-1.1
					c0.4-0.4,0.9-0.4,1.4-0.4c0.2,0,0.3,0,0.4,0c1.1-0.1,1.5-0.6,1.4-1.6c0-0.3-0.1-1.2-1.5-1.2c-6.7,0-11.8,0-16.6,0
					c-0.5,0-1,0.1-1.2,0.4c-0.2,0.2-0.3,0.6-0.3,1c0,0.6,0.2,1.3,1.7,1.3c2.1,0,4.1,0,6.2,0c1.9,0,3.7,0.2,5.1,2.7l0.3,0.6h-0.7
					c-1,0-2,0-3,0c-2.3,0-4.5,0-6.6,0c-0.2,0-0.4,0-0.6,0c-0.8,0-1.6,0-2.1,0.4c-0.2,0.2-0.3,0.5-0.3,1c0,0.5,0.1,0.8,0.3,1
					c0.4,0.4,1.3,0.4,2.1,0.4c0.2,0,0.4,0,0.6,0c2.1,0,4.2,0,6.5,0c1.1,0,2.2,0,3.4,0h0.8l-0.5,0.7c-1.7,2.3-3.2,2.8-5.1,2.8
					c-1.7,0-3.5,0-5.5,0c-0.1,0-0.3,0-0.4,0C192.8,46.3,192.8,46.3,192.7,46.3z"/>
			</g>
		</g>
	</g>
	<g>
		<g>
			<path d="M109.2,143.5l15.4,34.6l-10.2,7.1c0,0-1.2,3.2,0.8,4.2s3.4,0.7,4.9-0.3c1.5-1.1,12.6-8.9,12.6-8.9L113.2,136l-23.3,6.4
				c0,0-2.8,2-1.1,4.4c1.7,2.3,4.1,1.3,4.1,1.3L109.2,143.5z"/>
		</g>
		<g>
			<path d="M121.8,138c0,0,15.5-9.8,24.4-12.9c3.4-0.5,17.2-0.1,20.1,0.7c3,0.5,5.7,1,7.3,3c1.7,1.9,3.5,2.9,7.6,2.9
				c4.4,0.3,15.1,0.4,20.2,2c5,1.5,7.2,3.9,7.6,9c4.7-1.2,9.8-1.9,15.1-9.4c4.5-8.4,7.9-13,16.4-14.7c7.8-1.6,13.3,1.6,11.4,7.9
				c-2.9,6.3-10.1,21.7-14.1,25.7c-3.7,4.4-15.4,13-22.3,15.9c-6.9,3.5-18.6,9.3-27.2,9.2c-8.9-0.5-41.9-3.1-44.7-2.8
				c-2,0.7-5.1,1.9-6.1-2.1c-0.6-3.2,5.2-4,7.8-4c3.1-0.1,41.2,2.9,41.2,2.9s10.2,0.5,28.2-10.1c12.7-7.4,13.9-8.4,13.9-8.4
				s8.2-9,13.2-20.9c3.4-6.8,3.3-7.6,3.3-7.6s-7-0.5-11.6,5.8c-3.6,6.5-4.9,14.5-25.6,19.8c-4.3,4.9-6.8,4.6-8.7,4.8
				c-1.9,0.1-31.1-1.5-31.1-1.5s-2.9-1.1-2.3-3.7s3.3-2.2,3.3-2.2l29.4,1.5c0,0,4.8-0.5,4-5.4c-0.3-4.4-5.2-4.3-5.2-4.3l-17.6-1.3
				c0,0-8.6-1.2-11-5.2c-2.1-1.7-11.9-1.8-11.9-1.8L148,131c0,0-11.3,5.1-21.5,11.3C124,143.8,120.3,141.7,121.8,138z"/>
		</g>
	</g>
</g>
</svg>
